<svg width="12" height="12" viewBox="0 0 12 12" fill="none" xmlns="http://www.w3.org/2000/svg">
<g clip-path="url(#clip0_449_64814)">
<path fill-rule="evenodd" clip-rule="evenodd" d="M6 0.5C9.03757 0.5 11.5 2.96243 11.5 6C11.5 9.03757 9.03757 11.5 6 11.5C2.96243 11.5 0.5 9.03757 0.5 6C0.5 2.96243 2.96243 0.5 6 0.5ZM5.60254 2.5V3.2915C4.72189 3.44459 4.14651 4.0121 4.14648 4.81445C4.14648 5.54944 4.60853 6.03242 5.34351 6.24243L6.32007 6.52588C6.83453 6.67288 7.02343 6.9145 7.02344 7.30298C7.02344 7.79645 6.68754 8.04855 6.09961 8.04858C5.46962 8.04858 5.07059 7.744 4.91309 7.03003L3.85254 7.28198C4.05239 8.24491 4.69243 8.75161 5.60254 8.87085V9.5H6.60254V8.85547C7.54185 8.70028 8.14697 8.13453 8.14697 7.23999C8.14697 6.30551 7.60096 5.89604 6.77148 5.65454L5.84766 5.39209C5.44866 5.26609 5.25952 5.06647 5.25952 4.71997C5.25954 4.36299 5.54313 4.11108 6.06812 4.11108C6.59302 4.11112 6.91843 4.34204 7.09692 4.84595L8.14697 4.573C7.96338 3.81243 7.39404 3.40127 6.60254 3.28491V2.5H5.60254Z" fill="#FF6030"/>
</g>
<defs>
<clipPath id="clip0_449_64814">
<rect width="12" height="12" fill="white"/>
</clipPath>
</defs>
</svg>
