<svg width="21" height="12" viewBox="0 0 21 12" fill="none" xmlns="http://www.w3.org/2000/svg">
<rect x="0.867676" y="6.31738" width="19" height="4" fill="#FAFAFA"/>
<path d="M15.167 0C17.01 0.000186034 18.4004 1.58222 18.4004 3.40039C18.4003 3.93165 18.2814 4.44309 18.0674 4.90039H19C20.1046 4.90039 21 5.79582 21 6.90039V9.90039C20.9998 11.0048 20.1044 11.9004 19 11.9004L2 11.9004C0.89556 11.9004 0.000211286 11.0048 0 9.90039L0 6.90039C0 5.79582 0.895431 4.90039 2 4.90039L2.93262 4.90039C2.71859 4.44309 2.59967 3.93165 2.59961 3.40039C2.59961 1.58222 3.98997 0.000186034 5.83301 0C7.57469 0 8.79506 0.864835 9.64355 1.99219C9.9762 2.43417 10.2576 2.92319 10.5 3.42578C10.7424 2.92319 11.0238 2.43417 11.3564 1.99219C12.2049 0.864835 13.4253 0 15.167 0ZM2 6.89941V9.89941L9.5 9.89941V6.89941L2 6.89941ZM11.5 6.89941L11.5 9.89941L19 9.89941V6.89941L11.5 6.89941ZM5.83301 1.7998C5.0991 1.8 4.40058 2.45661 4.40039 3.39941C4.40039 4.12531 4.81433 4.68164 5.33984 4.89941L9.18262 4.89941C8.90894 4.2207 8.59414 3.59115 8.20508 3.07422C7.60685 2.27948 6.87478 1.7998 5.83301 1.7998ZM15.167 1.7998C14.1252 1.7998 13.3931 2.27948 12.7949 3.07422C12.4059 3.59115 12.0911 4.2207 11.8174 4.89941H15.6602C16.1857 4.68164 16.5996 4.12531 16.5996 3.39941C16.5994 2.45661 15.9009 1.8 15.167 1.7998Z" fill="#1D1D1B"/>
</svg>
